<svg xmlns="http://www.w3.org/2000/svg" viewBox="0 0 512 512" role="img" aria-label="מנלו בניה">
  <rect width="512" height="512" rx="96" fill="#f5c842"/>
  <circle cx="256" cy="256" r="214" fill="#ffffff"/>
  <g transform="translate(87 176)">
    <text x="168" y="92" text-anchor="middle" direction="rtl" unicode-bidi="plaintext"
      font-family="Arial, Heebo, sans-serif" font-size="88" font-weight="900" fill="#3f3f42">מנלו</text>
    <text x="64" y="132" text-anchor="middle" direction="rtl" unicode-bidi="plaintext"
      font-family="Arial, Heebo, sans-serif" font-size="32" font-weight="700" fill="#4b4b4f">בניה</text>
    <g transform="translate(260 17)">
      <path d="M0 90V22c0-17 20-26 33-14l59 54c7 6 11 15 11 24v63H22c-12 0-22-10-22-22Z" fill="#237fbd"/>
      <path d="M116 149V86c0-9 4-18 11-24l59-54c13-12 33-3 33 14v105c0 12-10 22-22 22Z" fill="#f5c842"/>
      <path d="M105 74c21 29 35 62 37 94 1 17-12 31-29 31s-30-14-29-31c2-32 10-65 21-94Z" fill="#08aa9d" opacity=".95"/>
    </g>
  </g>
</svg>
